<?xml version="1.0" encoding="UTF-8"?>
<svg id="Calque_2" data-name="Calque 2" xmlns="http://www.w3.org/2000/svg" xmlns:xlink="http://www.w3.org/1999/xlink" viewBox="0 0 490.47 426.09">
  <defs>
    <style>
      .cls-1 {
        fill: #fff;
      }

      .cls-2 {
        fill: url(#Dégradé_sans_nom_15);
      }

      .cls-3 {
        clip-path: url(#clippath);
      }
    </style>
    <linearGradient id="Dégradé_sans_nom_15" data-name="Dégradé sans nom 15" x1="20.34" y1="212.78" x2="446.34" y2="212.78" gradientTransform="translate(51.67 -44.18) rotate(12.18)" gradientUnits="userSpaceOnUse">
      <stop offset="0" stop-color="red"/>
      <stop offset="1" stop-color="#c1272d"/>
    </linearGradient>
    <clipPath id="clippath">
      <circle class="cls-2" cx="234.86" cy="213.04" r="213"/>
    </clipPath>
  </defs>
  <g id="Calque_1-2" data-name="Calque 1">
    <g>
      <circle class="cls-2" cx="234.86" cy="213.04" r="213"/>
      <g class="cls-3">
        <polyline class="cls-1" points="115.25 426.39 125.8 167.91 143.06 166.98 132.38 438.24 115.25 426.39"/>
        <ellipse class="cls-1" cx="135.92" cy="128.21" rx="68.23" ry="47" transform="translate(.07 256.5) rotate(-86.69)"/>
        <rect class="cls-1" x="201.49" y="175.2" width="15.07" height="282.27" transform="translate(71.45 -36.98) rotate(12.18)"/>
        <path class="cls-1" d="m231.7,180.24c-7.1-9.02-11.4-17.74-14.1-25.19-18.87-52.06,18.37-104.14,24.18-112.01-2.74,26.76-5.48,53.52-8.21,80.29l9.96,2.15c3.82-18.09,9.11-37.58,16.43-58.01,2.34-6.54,4.78-12.85,7.28-18.93-9.58,44.39-19.16,88.78-28.75,133.17l-6.78-1.46Z"/>
        <path class="cls-1" d="m245.25,183.17c10.19-5.29,17.71-11.46,23.24-17.13,38.66-39.64,26.22-102.44,24.18-112.01-8.55,25.51-17.09,51.02-25.64,76.53-3.32-.72-6.64-1.43-9.96-2.15,3.98-18.06,7.21-38,8.97-59.62.56-6.92.95-13.68,1.18-20.25-9.58,44.39-19.16,88.78-28.75,133.17,2.26.49,4.52.98,6.78,1.46Z"/>
        <rect class="cls-1" x="246.01" y="249.83" width="18.14" height="296.24" transform="translate(200 -71.52) rotate(25.97)"/>
        <path class="cls-1" d="m311.79,260.81l77.83-159.8c2.54,23.74,3.55,59.74-6.51,101.73-8.63,36.03-22.45,64.07-33.74,83.09-8.18,13.77-30.59,21.95-37.68,16.62-3.96-2.98-3.74-10.67-3.46-20.51.25-8.98,2.04-16.28,3.57-21.13Z"/>
      </g>
    </g>
    <path class="cls-1" d="m430.86,297.04c-54.65,12.9-118.07,24.35-189,31-67.49,6.32-129.04,7.09-183,5-6.44-9.37-13.11-20.69-19-34-13.63-30.81-17.28-59.2-18-79,64.99-11.29,135.5-21.05,211-28,75.66-6.97,146.91-10.25,213-11,2.87,14.94,5.39,37.8,1,65-3.48,21.55-10.16,38.83-16,51Z"/>
    <g>
      <path d="m51.98,318.28c-10.78-12.16-20.31-25.91-30.52-39.98l1.7,18.78c.93,4.37,3.83,11.09,4.33,16.98.55,6.45-1.66,12.02-12.07,12.91-6.72.58-9.35-3-9.73-7.42-.28-3.32.61-6.92,2.04-9.73,1.03-2.04,2.44-5.04,2.71-11.65l-3.24-37.86c-1.38-6.38-3.28-9.09-4.65-10.92-1.36-1.83-2.2-5.1-2.47-8.23-.36-4.24.32-8.19,2.25-8.36l4.87-.51c4.79-.41,9.9-.29,13.64,3.19,5.06,4.95,8.91,11.95,14.45,19.18,4.41,5.93,8.82,11.96,12.72,17.38l-1.33-14.45c-1.02-4.37-3.82-10.99-4.32-16.8-.54-6.26,1.61-11.55,11.65-12.41l1.75-.15c5.09-.16,8.27,4.49,8.71,9.55.21,2.4-.14,4.84-1.17,6.97-1.03,2.04-2.44,5.04-2.71,11.65l2.58,30.12c1.38,6.38,4.1,12.08,4.93,14.24,1.32,3.51,1.97,6.79,2.23,9.83.59,6.91-1.31,11.8-3.98,12.03-6.36.54-11.5-1.06-14.38-4.33Z"/>
      <path d="m76.46,274.71l-2.04-23.77c-1.34-5.92-5.16-11.53-5.55-16.04-.39-4.61,2.84-8.04,16.29-9.19,12.34-1.06,17.19,3.54,17.57,7.96.32,3.68-3.03,5.73-3.34,15.13l2.04,23.77c1.52,17.78,9.23,30.85,17.25,30.16,5.53-.47,5.9-7,5.06-16.76-.39-4.51-1.01-9.66-1.49-15.18l-2.04-23.77c-1.37-6.28-5.49-12.06-5.87-16.48-.38-4.42,2.78-7.57,15.59-8.67,5.07-.43,7.95,2.94,8.3,6.99.14,1.66-.16,3.54-.94,5.28-.94,2.03-2.45,5.03-2.71,11.65l2.04,23.77c.46,5.34,1.22,11.03,1.7,16.56,1.36,15.84.19,30.33-18.33,31.91-37.58,3.22-41.74-22.5-43.52-43.32Z"/>
      <path d="m165.1,305.25c-.39-4.51,3.08-5.18,3.48-15.7l-4.8-56.01c-4.96,1.72-3.32,7.8-4.12,12.51-.6,3.76-3.75,6.07-7.16,6.37-6.73.48-8.04-5.06-8.55-10.96l-.53-6.17c-.83-9.67,8.52-15.39,29.98-17.23,9.67-.83,33.52-1.85,34.68,11.6l.02.18s.55,2.09.78,4.76c.45,5.25,0,12.9-6.27,13.44-6.17.53-6.7-2.4-8.2-5.79-2.04-4.37-1.59-9.89-6.67-10.75l4.8,56.01c1.2,5.28,4.64,10.83,5.03,15.44.42,4.88-2.6,8.67-15.77,9.8-12.71,1.09-16.35-3.43-16.69-7.48Z"/>
      <path d="m275.66,304.69c-17.59,1.51-19.82-7.12-20.2-11.63l-.07-1.94c-.12-1.38-9.83-16.14-12.17-19.65l.67,7.83c1.11,5.38,4.36,11.88,4.83,17.4.48,5.62-2,10.19-12.87,11.12-12.07,1.03-16.43-4.44-16.8-8.68-.09-1.01.1-2.05.5-2.83.94-2.03,2.14-8.63,2.41-15.15l-3.13-36.57c-.58-6.82-3.69-13.88-4.18-19.59-.52-6.08,1.88-10.55,13.21-11.52,41.27-3.54,52.76,4.94,54.77,28.43.77,8.94-4.94,19.26-16.61,24.9l8.89,13.81c4.95,5.79,10.26,6.08,12.63,7.73,1.18.83,1.76,2.17,1.89,3.64.42,4.88-4.36,11.88-13.76,12.69Zm-28.5-47.76c1.38-.12,2.91-.71,4.75-1.98,4.9-3.48,6.22-8.61,5.89-14.7-.64-7.46-5.24-14.58-14.73-13.77l-3.68.32c.41,4.79.46,10.82.92,16.16.67,7.83,2.16,14.38,6.86,13.98Z"/>
      <path d="m294.83,294.42c-.42-4.88,2.02-11.12,2.26-15.88l-3.97-46.33c-1.38-6.38-3.91-8.85-4.65-10.92-.36-.99-.63-1.89-.7-2.82-.59-6.91,6.59-10.77,14.15-11.42,12.9-1.11,16.33,3.24,16.82,8.95.39,4.51-1.11,9.84-1.2,14.11l3.97,46.33c1.39,6.47,3.91,8.85,4.66,11.02.16.73.3,1.37.36,2.01.62,7.19-8.93,11.71-16.66,12.38-11.33.97-14.59-2.46-15.02-7.44Z"/>
      <path d="m346.85,289.68c-.39-4.51,3.08-5.18,3.48-15.7l-4.8-56.01c-4.96,1.72-3.32,7.8-4.12,12.51-.61,3.76-3.75,6.07-7.16,6.37-6.73.48-8.04-5.06-8.55-10.96l-.53-6.17c-.83-9.67,8.52-15.39,29.98-17.23,9.67-.83,33.52-1.85,34.68,11.6l.02.18s.55,2.09.78,4.76c.45,5.25,0,12.9-6.27,13.44-6.17.53-6.7-2.4-8.2-5.79-2.04-4.37-1.59-9.89-6.67-10.75l4.8,56.01c1.2,5.28,4.64,10.83,5.03,15.44.42,4.88-2.6,8.67-15.77,9.8-12.71,1.09-16.35-3.43-16.69-7.48Z"/>
      <path d="m401.5,285.28c-.42-4.88,2.02-11.12,2.26-15.88l-3.97-46.33c-1.38-6.38-3.91-8.85-4.65-10.92-.36-.99-.63-1.89-.71-2.82-.59-6.91,6.59-10.77,14.15-11.42,12.9-1.1,16.33,3.24,16.82,8.95.39,4.51-1.11,9.84-1.2,14.11l3.97,46.33c1.39,6.47,3.91,8.85,4.66,11.01.16.73.3,1.37.36,2.01.62,7.19-8.93,11.71-16.66,12.38-11.33.97-14.59-2.46-15.02-7.44Z"/>
      <path d="m454.54,289.18c-8.11.69-15.1.27-15.95-3.18-.25-.72-.4-1.36-.46-2.09-.42-4.88,2.89-8.51,2.15-17.16l-3.97-46.33c-.7-8.2-3.95-12.56-4.29-16.52-.1-1.2-.01-2.32.63-3.49,1.64-3.57,9.39-5.17,32.15-7.12,9.3-.8,17.55,2.3,22.01,7.77,2.18,2.69,3.37,5.74,3.61,8.6.5,5.9-2.75,11.18-8.56,11.68-2.95.25-6.56-.74-10.7-3.54-8.76-5.84-2.7-9.88-12.74-9.02l2.5,29.2c3.15-4.35,10.5-10.64,17.32-11.23,4.24-.36,8.3,1.52,11.05,7.68.35.81.52,1.72.6,2.64.54,6.26-5.04,13.79-10.38,14.25-1.38.12-2.71-.23-3.9-1.15-1.78-1.33-3.31-1.85-4.6-1.74-4.51.39-6.57,7.8-8.25,10.91l.87,9.11c.35,4.05,3.25,8.72,3.58,12.59.35,4.05-2.07,7.23-12.66,8.14Z"/>
    </g>
  </g>
</svg>